f6544f83b6b59a90f6aa2b50c04b5776 *tests/data/fate/generic-tags-remux-mov.mp4
18063 tests/data/fate/generic-tags-remux-mov.mp4
#tb 0: 1/44100
#media_type 0: audio
#codec_id 0: mp3
#sample_rate 0: 44100
#channel_layout_name 0: mono
0,      -1105,      -1105,     1152,      417, 0xaea2b620, S=1, Skip Samples,       10, 0x034e0055
0,         47,         47,     1152,      418, 0x04edc6dd
0,       1199,       1199,     1152,      418, 0x2f1ac32b
0,       2351,       2351,     1152,      418, 0xa5ebce7b
0,       3503,       3503,     1152,      418, 0xa4e1d8b5
0,       4655,       4655,     1152,      418, 0xf927d670
0,       5807,       5807,     1152,      418, 0x4e8ccae5
0,       6959,       6959,     1152,      418, 0x2b0ad5c2
0,       8111,       8111,     1152,      418, 0x4a2fcc63
0,       9263,       9263,     1152,      418, 0xe945dbc7
0,      10415,      10415,     1152,      418, 0x601cd144
0,      11567,      11567,     1152,      418, 0x052dc6a9
0,      12719,      12719,     1152,      418, 0x348bd06b
0,      13871,      13871,     1152,      418, 0x2996d2bd
0,      15023,      15023,     1152,      418, 0xf658cc71
0,      16175,      16175,     1152,      418, 0xeb19d2bf
0,      17327,      17327,     1152,      418, 0xd547d84e
0,      18479,      18479,     1152,      418, 0x4a59d73f
0,      19631,      19631,     1152,      418, 0xedbcd9bf
0,      20783,      20783,     1152,      418, 0x36c1d5fb
0,      21935,      21935,     1152,      418, 0x30ddcf11
0,      23087,      23087,     1152,      418, 0xc1c6d2de
0,      24239,      24239,     1152,      418, 0xeed0cfc8
0,      25391,      25391,     1152,      418, 0xe7bfde05
0,      26543,      26543,     1152,      418, 0x3bbec91f
0,      27695,      27695,     1152,      417, 0x82e1cc86
0,      28847,      28847,     1152,      418, 0x9819cdd2
0,      29999,      29999,     1152,      418, 0x2cddd971
0,      31151,      31151,     1152,      418, 0x2b84d6f8
0,      32303,      32303,     1152,      418, 0xe483ce32
0,      33455,      33455,     1152,      418, 0x68add0b0
0,      34607,      34607,     1152,      418, 0xddd6d0bf
0,      35759,      35759,     1152,      418, 0x00c7d8aa
0,      36911,      36911,     1152,      418, 0x915fd36c
0,      38063,      38063,     1152,      418, 0x28d2d73c
0,      39215,      39215,     1152,      418, 0xaa7ad8b4
0,      40367,      40367,     1152,      418, 0xe4e6d680
0,      41519,      41519,     1152,      418, 0x4084d578
0,      42671,      42671,     1152,      418, 0x3ab4b6e7
0,      43823,      43823,     1152,      418, 0x951b66f9, S=1, Skip Samples,       10, 0x0291006e
[FORMAT]
TAG:major_brand=isom
TAG:minor_version=512
TAG:compatible_brands=isomiso2mp41
TAG:title=Intro
TAG:artist=M83
TAG:album_artist=M83
TAG:composer=Anthony Gonzalez
TAG:album=Hurry Up, We're Dreaming
TAG:date=2011-10-17
TAG:comment=I love M83
TAG:genre=Electronic
TAG:copyright=2011 M83 Recording Inc
TAG:track=1/11
TAG:disc=1
TAG:disc_subtitle=Hurry Up
[/FORMAT]
